<mxfile host="app.diagrams.net" modified="2024-04-12T14:48:31.355Z" agent="Mozilla/5.0 (Windows NT 10.0; Win64; x64) AppleWebKit/537.36 (KHTML, like Gecko) Chrome/123.0.0.0 Safari/537.36" version="24.2.3" etag="1ZyMTKvtPUghyUPVNf0a" type="github">
  <diagram name="Page-1" id="4HfQBjrD1SLoDt-kBAtX">
    <mxGraphModel>
      <root>
        <mxCell id="0" />
        <mxCell id="1" parent="0" />
      </root>
    </mxGraphModel>
  </diagram>
</mxfile>
